<?xml version="1.0" encoding="UTF-8" standalone="no"?>
<svg
   width="23.5mm"
   height="23.5mm"
   viewBox="0 0 88.818898 88.818898"
   version="1.1"
   xml:space="preserve"
   style="clip-rule:evenodd;fill-rule:evenodd;stroke-linecap:round;stroke-linejoin:round;stroke-miterlimit:1.5"
   id="svg14"
   sodipodi:docname="Ones Knob Label.svg"
   inkscape:version="1.4 (e7c3feb1, 2024-10-09)"
   xmlns:inkscape="http://www.inkscape.org/namespaces/inkscape"
   xmlns:sodipodi="http://sodipodi.sourceforge.net/DTD/sodipodi-0.dtd"
   xmlns="http://www.w3.org/2000/svg"
   xmlns:svg="http://www.w3.org/2000/svg"><defs
   id="defs14" /><sodipodi:namedview
   id="namedview14"
   pagecolor="#ffffff"
   bordercolor="#000000"
   borderopacity="0.25"
   inkscape:showpageshadow="2"
   inkscape:pageopacity="0.0"
   inkscape:pagecheckerboard="0"
   inkscape:deskcolor="#d1d1d1"
   inkscape:zoom="6.07"
   inkscape:cx="60.049423"
   inkscape:cy="46.787479"
   inkscape:window-width="2560"
   inkscape:window-height="1387"
   inkscape:window-x="0"
   inkscape:window-y="25"
   inkscape:window-maximized="1"
   inkscape:current-layer="svg14"
   inkscape:document-units="mm" />
    <g
   transform="matrix(0.08547621,0,0,0.08544651,-346.91855,-527.11663)"
   id="g14">
        <g
   id="Ones"
   transform="translate(-449.188,-477.697)">
            <g
   transform="matrix(2.30415,0,0,2.30415,-8298.33,-12707.1)"
   id="g1">
                <path
   d="m 5783.3,8399.54 c 124.41,0 225.41,101.01 225.41,225.42 0,124.41 -101,225.42 -225.41,225.42 -124.41,0 -225.42,-101.01 -225.42,-225.42 0,-124.41 101.01,-225.42 225.42,-225.42 z m 0,122.9 c -56.59,0 -102.52,45.94 -102.52,102.52 0,56.58 45.93,102.52 102.52,102.52 56.58,0 102.52,-45.94 102.52,-102.52 0,-56.58 -45.94,-102.52 -102.52,-102.52 z"
   id="path1" />
            </g>
            <g
   transform="translate(449.188,406.697)"
   id="g2">
                <path
   d="m 4578.05,6526 v 97"
   style="fill:none;stroke:#000000;stroke-width:16.67px"
   id="path2" />
            </g>
            <g
   transform="translate(-918.567,-1663.57)"
   id="g13">
                <g
   transform="matrix(116.261,119.42,-119.42,116.261,6163.69,8555.55)"
   id="g3">
                    <path
   d="m 0.314,-0.205 -0.001,0.001 c -0.016,0.025 -0.05,0.062 -0.066,0.072 L 0.188,-0.086 C 0.187,-0.085 0.187,-0.085 0.184,-0.083 0.178,-0.079 0.177,-0.078 0.174,-0.075 0.162,-0.065 0.157,-0.054 0.157,-0.041 0.157,-0.017 0.175,0 0.199,0 0.208,0 0.218,-0.004 0.228,-0.012 l 0.056,-0.045 c 0.047,-0.038 0.059,-0.049 0.084,-0.083 0.058,-0.076 0.093,-0.184 0.093,-0.284 0,-0.136 -0.085,-0.241 -0.194,-0.241 -0.109,0 -0.195,0.103 -0.195,0.233 0,0.132 0.085,0.235 0.195,0.235 0.015,0 0.027,-0.002 0.039,-0.005 z M 0.266,-0.581 c 0.063,0 0.112,0.066 0.112,0.149 0,0.083 -0.05,0.151 -0.11,0.151 -0.065,0 -0.114,-0.065 -0.114,-0.153 0,-0.083 0.049,-0.147 0.112,-0.147 z"
   style="fill:#ffffff;fill-rule:nonzero"
   id="path3" />
                </g>
                <g
   transform="matrix(41.5677,161.4,-161.4,41.5677,6271.13,8699.75)"
   id="g4">
                    <path
   d="m 0.148,-0.344 c -0.042,0.052 -0.057,0.089 -0.057,0.147 0,0.115 0.073,0.196 0.176,0.196 0.103,0 0.176,-0.081 0.176,-0.196 0,-0.057 -0.019,-0.107 -0.057,-0.147 L 0.384,-0.346 0.386,-0.347 c 0.03,-0.037 0.045,-0.079 0.045,-0.13 0,-0.11 -0.07,-0.191 -0.165,-0.191 -0.094,0 -0.164,0.081 -0.164,0.189 0,0.051 0.016,0.095 0.047,0.134 z M 0.267,-0.58 c 0.031,0 0.045,0.006 0.06,0.027 0.013,0.019 0.021,0.046 0.021,0.074 0,0.031 -0.009,0.059 -0.025,0.078 -0.014,0.016 -0.029,0.022 -0.057,0.022 -0.025,0 -0.041,-0.006 -0.053,-0.02 -0.018,-0.02 -0.028,-0.05 -0.028,-0.081 0,-0.031 0.014,-0.068 0.031,-0.085 0.012,-0.013 0.021,-0.015 0.051,-0.015 z m -0.001,0.276 c 0.035,0 0.049,0.006 0.066,0.025 0.018,0.02 0.028,0.051 0.028,0.083 0,0.03 -0.008,0.058 -0.024,0.078 -0.017,0.025 -0.031,0.03 -0.073,0.03 -0.031,0 -0.045,-0.005 -0.061,-0.024 -0.017,-0.02 -0.028,-0.053 -0.028,-0.086 0,-0.026 0.008,-0.053 0.02,-0.072 0.018,-0.024 0.038,-0.034 0.072,-0.034 z"
   style="fill:#ffffff;fill-rule:nonzero"
   id="path4" />
                </g>
                <g
   transform="matrix(-44.076,160.733,-160.733,-44.076,6292.61,8878.65)"
   id="g5">
                    <path
   d="M 0.331,-0.582 0.198,-0.075 C 0.193,-0.056 0.191,-0.044 0.191,-0.039 0.191,-0.017 0.209,0 0.232,0 0.257,0 0.266,-0.01 0.275,-0.045 L 0.42,-0.599 C 0.423,-0.612 0.424,-0.615 0.424,-0.622 0.424,-0.65 0.405,-0.666 0.37,-0.666 H 0.165 c -0.038,0 -0.055,0.013 -0.055,0.043 0,0.014 0.007,0.029 0.018,0.036 0.007,0.004 0.012,0.005 0.03,0.005 z"
   style="fill:#ffffff;fill-rule:nonzero"
   id="path5" />
                </g>
                <g
   transform="matrix(-118.026,117.676,-117.676,-118.026,6222.41,9044.25)"
   id="g6">
                    <path
   d="M 0.219,-0.46 C 0.231,-0.477 0.243,-0.493 0.248,-0.497 0.261,-0.51 0.275,-0.522 0.288,-0.534 L 0.293,-0.538 0.346,-0.58 c 0.011,-0.009 0.018,-0.015 0.019,-0.016 0.006,-0.007 0.009,-0.015 0.009,-0.025 0,-0.016 -0.008,-0.032 -0.018,-0.038 -0.005,-0.003 -0.024,-0.007 -0.029,-0.006 -0.003,0 -0.014,0.005 -0.016,0.007 l -0.067,0.053 c -0.108,0.086 -0.172,0.218 -0.172,0.358 0,0.144 0.081,0.248 0.194,0.248 0.108,0 0.194,-0.104 0.194,-0.235 0,-0.131 -0.087,-0.233 -0.197,-0.233 -0.014,0 -0.027,0.002 -0.038,0.005 z m 0.048,0.078 c 0.062,0 0.111,0.066 0.111,0.149 0,0.082 -0.051,0.151 -0.111,0.151 -0.065,0 -0.113,-0.065 -0.113,-0.152 0,-0.084 0.049,-0.148 0.113,-0.148 z"
   style="fill:#ffffff;fill-rule:nonzero"
   id="path6" />
                </g>
                <g
   transform="matrix(-160.869,43.5756,-43.5756,-160.869,6079.52,9153.34)"
   id="g7">
                    <path
   d="m 0.194,-0.571 h 0.138 c 0.039,0 0.053,-0.011 0.053,-0.04 0,-0.03 -0.016,-0.043 -0.051,-0.043 H 0.161 c -0.04,0 -0.049,0.009 -0.049,0.05 v 0.219 c 0,0.027 0.002,0.034 0.01,0.043 0.008,0.009 0.021,0.014 0.034,0.014 0.014,0 0.018,-0.002 0.027,-0.009 0.022,-0.021 0.041,-0.03 0.063,-0.03 0.06,0 0.107,0.062 0.107,0.143 0,0.078 -0.047,0.14 -0.106,0.14 -0.029,0 -0.055,-0.014 -0.072,-0.039 -0.016,-0.023 -0.018,-0.025 -0.038,-0.025 -0.024,0 -0.041,0.017 -0.041,0.04 0,0.015 0.005,0.024 0.023,0.045 0.041,0.044 0.077,0.062 0.127,0.062 0.106,0 0.19,-0.099 0.19,-0.224 0,-0.125 -0.084,-0.225 -0.188,-0.225 -0.017,0 -0.032,0.003 -0.046,0.008 L 0.194,-0.44 Z"
   style="fill:#ffffff;fill-rule:nonzero"
   id="path7" />
                </g>
                <g
   transform="matrix(-161.269,-42.0706,42.0706,-161.269,5901.06,9177)"
   id="g8">
                    <path
   d="m 0.155,-0.204 0.111,-0.388 0.001,-0.005 c 0.001,-0.001 0.002,-0.005 0.004,-0.012 0.002,-0.006 0.003,-0.012 0.003,-0.015 0,-0.023 -0.02,-0.041 -0.044,-0.041 -0.019,0 -0.035,0.013 -0.037,0.032 C 0.192,-0.631 0.192,-0.63 0.192,-0.63 L 0.069,-0.199 0.067,-0.191 C 0.061,-0.17 0.06,-0.167 0.06,-0.16 c 0,0.017 0.01,0.032 0.024,0.036 0.007,0.002 0.013,0.003 0.033,0.003 h 0.18 v 0.063 c 0,0.028 0.002,0.035 0.009,0.044 0.008,0.01 0.021,0.015 0.034,0.015 0.029,0 0.039,-0.015 0.039,-0.06 V -0.121 H 0.42 c 0.038,0 0.054,-0.012 0.054,-0.04 0,-0.016 -0.009,-0.033 -0.021,-0.038 C 0.445,-0.203 0.439,-0.204 0.423,-0.204 H 0.379 v -0.153 c 0.003,-0.027 -0.014,-0.045 -0.041,-0.045 -0.028,0 -0.041,0.015 -0.041,0.05 v 0.148 z"
   style="fill:#ffffff;fill-rule:nonzero"
   id="path8" />
                </g>
                <g
   transform="matrix(-119.073,-116.617,116.617,-119.073,5734.62,9108.89)"
   id="g9">
                    <path
   d="m 0.304,-0.463 0.088,-0.11 c 0.023,-0.029 0.024,-0.031 0.024,-0.049 0,-0.014 -0.009,-0.031 -0.02,-0.037 C 0.388,-0.663 0.377,-0.665 0.356,-0.665 H 0.164 c -0.036,0 -0.052,0.013 -0.052,0.042 0,0.03 0.015,0.041 0.056,0.041 h 0.126 l -0.099,0.124 c -0.002,0.003 -0.005,0.005 -0.006,0.008 -0.002,0.001 -0.003,0.003 -0.004,0.004 -0.011,0.013 -0.014,0.02 -0.014,0.031 0,0.023 0.017,0.031 0.06,0.031 0.05,-0.001 0.072,0.004 0.092,0.022 0.033,0.028 0.053,0.078 0.053,0.13 0,0.083 -0.049,0.149 -0.112,0.149 -0.049,0 -0.087,-0.037 -0.107,-0.105 -0.008,-0.027 -0.016,-0.034 -0.038,-0.034 -0.024,0 -0.043,0.017 -0.043,0.04 0,0.01 0.003,0.023 0.009,0.04 0.034,0.09 0.1,0.143 0.178,0.143 0.109,0 0.195,-0.103 0.195,-0.234 0,-0.053 -0.014,-0.104 -0.041,-0.145 C 0.393,-0.416 0.361,-0.44 0.304,-0.463 Z"
   style="fill:#ffffff;fill-rule:nonzero"
   id="path9" />
                </g>
                <g
   transform="matrix(-45.4492,-160.35,160.35,-45.4492,5623.67,8967.14)"
   id="g10">
                    <path
   d="m 0.194,-0.083 0.001,-0.003 c 0.021,-0.095 0.07,-0.175 0.14,-0.224 0.024,-0.017 0.028,-0.02 0.038,-0.03 0.035,-0.034 0.055,-0.085 0.055,-0.141 0,-0.105 -0.07,-0.189 -0.158,-0.189 -0.086,0 -0.158,0.084 -0.158,0.185 0,0.026 0.002,0.036 0.01,0.045 0.008,0.008 0.019,0.013 0.032,0.013 0.026,0 0.04,-0.016 0.04,-0.045 V -0.478 L 0.193,-0.485 C 0.191,-0.5 0.2,-0.532 0.21,-0.549 c 0.015,-0.024 0.037,-0.038 0.06,-0.038 0.041,0 0.075,0.047 0.075,0.105 0,0.044 -0.014,0.074 -0.045,0.095 C 0.218,-0.329 0.171,-0.269 0.136,-0.176 0.119,-0.13 0.105,-0.069 0.105,-0.039 0.105,-0.009 0.118,0 0.159,0 h 0.222 c 0.018,-0.001 0.02,-0.001 0.028,-0.006 0.011,-0.008 0.018,-0.022 0.018,-0.037 0,-0.027 -0.015,-0.04 -0.046,-0.04 z"
   style="fill:#ffffff;fill-rule:nonzero"
   id="path10" />
                </g>
                <g
   transform="matrix(40.0558,-161.782,161.782,40.0558,5597.92,8789.09)"
   id="g11">
                    <path
   d="m 0.305,-0.617 c 0,-0.032 -0.012,-0.047 -0.038,-0.047 -0.027,0 -0.039,0.015 -0.039,0.05 v 0.567 c 0,0.021 0.001,0.026 0.006,0.032 0.009,0.011 0.02,0.016 0.033,0.016 0.026,0 0.038,-0.015 0.038,-0.048 z"
   style="fill:#ffffff;fill-rule:nonzero"
   id="path11" />
                </g>
                <g
   transform="matrix(118.551,-117.147,117.147,118.551,5670.12,8613.79)"
   id="g12">
                    <path
   d="m 0.267,-0.669 c -0.055,0 -0.115,0.039 -0.145,0.096 -0.032,0.057 -0.049,0.141 -0.049,0.235 0,0.122 0.022,0.21 0.067,0.271 C 0.168,-0.029 0.223,0 0.266,0 0.306,0 0.356,-0.025 0.385,-0.06 0.436,-0.12 0.46,-0.208 0.46,-0.331 0.46,-0.457 0.433,-0.557 0.385,-0.611 0.352,-0.646 0.306,-0.669 0.267,-0.669 Z m 0.002,0.085 c 0.065,0 0.108,0.103 0.108,0.258 0,0.082 -0.014,0.152 -0.039,0.192 -0.018,0.029 -0.048,0.05 -0.072,0.05 -0.022,0 -0.051,-0.019 -0.066,-0.044 -0.03,-0.049 -0.044,-0.116 -0.044,-0.212 0,-0.147 0.045,-0.244 0.113,-0.244 z"
   style="fill:#ffffff;fill-rule:nonzero"
   id="path12" />
                </g>
            </g>
        </g>
    </g>
</svg>
