<?xml version="1.0" encoding="UTF-8" standalone="no"?>
<!DOCTYPE svg PUBLIC "-//W3C//DTD SVG 1.1//EN" "http://www.w3.org/Graphics/SVG/1.1/DTD/svg11.dtd">
<svg width="100%" height="100%" viewBox="0 0 104 104" version="1.1" xmlns="http://www.w3.org/2000/svg" xmlns:xlink="http://www.w3.org/1999/xlink" xml:space="preserve" xmlns:serif="http://www.serif.com/" style="fill-rule:evenodd;clip-rule:evenodd;stroke-linecap:round;stroke-linejoin:round;stroke-miterlimit:2;">
    <g transform="matrix(0.06,0,0,0.06,-177.766,-99.1796)">
        <g id="Tens" transform="matrix(0.96306,0,0,0.96306,615.443,-6263.18)">
            <g transform="matrix(0.960526,0,0,0.960526,-483.409,155.269)">
                <path d="M3972.86,8395.96C4487.29,8395.96 4904.93,8813.61 4904.93,9328.03C4904.93,9842.45 4487.29,10260.1 3972.86,10260.1C3458.44,10260.1 3040.8,9842.45 3040.8,9328.03C3040.8,8813.61 3458.44,8395.96 3972.86,8395.96ZM3972.86,8715.16C3634.61,8715.16 3360,8989.78 3360,9328.03C3360,9666.28 3634.61,9940.9 3972.86,9940.9C4311.11,9940.9 4585.73,9666.28 4585.73,9328.03C4585.73,8989.78 4311.11,8715.16 3972.86,8715.16Z"/>
            </g>
            <g id="LINE" transform="matrix(-3.57214,-16.9334,16.9333,-3.57212,11523.8,12651.4)">
                <path d="M308.409,-418.394L308.409,-423.496" style="fill:none;stroke:black;stroke-width:1px;"/>
            </g>
            <g id="LINE1" serif:id="LINE" transform="matrix(-3.57214,-16.9334,16.9333,-3.57212,11523.8,12651.4)">
                <path d="M287.008,-418.394L287.008,-423.496" style="fill:none;stroke:black;stroke-width:1px;"/>
            </g>
            <g transform="matrix(1.03836,0,0,1.03836,-3235.18,-447.146)">
                <g transform="matrix(-27.4685,164.388,-164.388,-27.4685,7049.33,9285.66)">
                    <path d="M0.305,-0.617C0.305,-0.649 0.293,-0.664 0.267,-0.664C0.24,-0.664 0.228,-0.649 0.228,-0.614L0.228,-0.047C0.228,-0.026 0.229,-0.021 0.234,-0.015C0.243,-0.004 0.254,0.001 0.267,0.001C0.293,0.001 0.305,-0.014 0.305,-0.047L0.305,-0.617Z" style="fill:white;fill-rule:nonzero;"/>
                </g>
                <g transform="matrix(-86.9487,142.189,-142.189,-86.9487,6968.86,9549.48)">
                    <path d="M0.305,-0.617C0.305,-0.649 0.293,-0.664 0.267,-0.664C0.24,-0.664 0.228,-0.649 0.228,-0.614L0.228,-0.047C0.228,-0.026 0.229,-0.021 0.234,-0.015C0.243,-0.004 0.254,0.001 0.267,0.001C0.293,0.001 0.305,-0.014 0.305,-0.047L0.305,-0.617Z" style="fill:white;fill-rule:nonzero;"/>
                </g>
                <g transform="matrix(-133.421,99.8835,-99.8835,-133.421,6795.69,9764.52)">
                    <path d="M0.305,-0.617C0.305,-0.649 0.293,-0.664 0.267,-0.664C0.24,-0.664 0.228,-0.649 0.228,-0.614L0.228,-0.047C0.228,-0.026 0.229,-0.021 0.234,-0.015C0.243,-0.004 0.254,0.001 0.267,0.001C0.293,0.001 0.305,-0.014 0.305,-0.047L0.305,-0.617Z" style="fill:white;fill-rule:nonzero;"/>
                </g>
            </g>
            <g transform="matrix(1.03836,0,0,1.03836,-3093.75,-305.714)">
                <g transform="matrix(-27.0161,164.462,-164.462,-27.0161,6778.92,9125.26)">
                    <path d="M0.194,-0.083L0.195,-0.086C0.216,-0.181 0.265,-0.261 0.335,-0.31C0.359,-0.327 0.363,-0.33 0.373,-0.34C0.408,-0.374 0.428,-0.425 0.428,-0.481C0.428,-0.586 0.358,-0.67 0.27,-0.67C0.184,-0.67 0.112,-0.586 0.112,-0.485C0.112,-0.459 0.114,-0.449 0.122,-0.44C0.13,-0.432 0.141,-0.427 0.154,-0.427C0.18,-0.427 0.194,-0.443 0.194,-0.472L0.194,-0.478L0.193,-0.485C0.191,-0.5 0.2,-0.532 0.21,-0.549C0.225,-0.573 0.247,-0.587 0.27,-0.587C0.311,-0.587 0.345,-0.54 0.345,-0.482C0.345,-0.438 0.331,-0.408 0.3,-0.387C0.218,-0.329 0.171,-0.269 0.136,-0.176C0.119,-0.13 0.105,-0.069 0.105,-0.039C0.105,-0.009 0.118,-0 0.159,-0L0.381,-0C0.399,-0.001 0.401,-0.001 0.409,-0.006C0.42,-0.014 0.427,-0.028 0.427,-0.043C0.427,-0.07 0.412,-0.083 0.381,-0.083L0.194,-0.083Z" style="fill:white;fill-rule:nonzero;"/>
                </g>
                <g transform="matrix(-86.6808,142.352,-142.352,-86.6808,6716.87,9341.37)">
                    <path d="M0.305,-0.617C0.305,-0.649 0.293,-0.664 0.267,-0.664C0.24,-0.664 0.228,-0.649 0.228,-0.614L0.228,-0.047C0.228,-0.026 0.229,-0.021 0.234,-0.015C0.243,-0.004 0.254,0.001 0.267,0.001C0.293,0.001 0.305,-0.014 0.305,-0.047L0.305,-0.617Z" style="fill:white;fill-rule:nonzero;"/>
                </g>
                <g transform="matrix(-133.271,100.083,-100.083,-133.271,6578.64,9518.63)">
                    <path d="M0.267,-0.669C0.212,-0.669 0.152,-0.63 0.122,-0.573C0.09,-0.516 0.073,-0.432 0.073,-0.338C0.073,-0.216 0.095,-0.128 0.14,-0.067C0.168,-0.029 0.223,-0 0.266,-0C0.306,-0 0.356,-0.025 0.385,-0.06C0.436,-0.12 0.46,-0.208 0.46,-0.331C0.46,-0.457 0.433,-0.557 0.385,-0.611C0.352,-0.646 0.306,-0.669 0.267,-0.669ZM0.269,-0.584C0.334,-0.584 0.377,-0.481 0.377,-0.326C0.377,-0.244 0.363,-0.174 0.338,-0.134C0.32,-0.105 0.29,-0.084 0.266,-0.084C0.244,-0.084 0.215,-0.103 0.2,-0.128C0.17,-0.177 0.156,-0.244 0.156,-0.34C0.156,-0.487 0.201,-0.584 0.269,-0.584Z" style="fill:white;fill-rule:nonzero;"/>
                </g>
                <g transform="matrix(-161.021,43.0118,-43.0118,-161.021,6384.5,9631.95)">
                    <path d="M0.314,-0.205L0.313,-0.204C0.297,-0.179 0.263,-0.142 0.247,-0.132L0.188,-0.086C0.187,-0.085 0.187,-0.085 0.184,-0.083C0.178,-0.079 0.177,-0.078 0.174,-0.075C0.162,-0.065 0.157,-0.054 0.157,-0.041C0.157,-0.017 0.175,-0 0.199,-0C0.208,-0 0.218,-0.004 0.228,-0.012L0.284,-0.057C0.331,-0.095 0.343,-0.106 0.368,-0.14C0.426,-0.216 0.461,-0.324 0.461,-0.424C0.461,-0.56 0.376,-0.665 0.267,-0.665C0.158,-0.665 0.072,-0.562 0.072,-0.432C0.072,-0.3 0.157,-0.197 0.267,-0.197C0.282,-0.197 0.294,-0.199 0.306,-0.202L0.314,-0.205ZM0.266,-0.581C0.329,-0.581 0.378,-0.515 0.378,-0.432C0.378,-0.349 0.328,-0.281 0.268,-0.281C0.203,-0.281 0.154,-0.346 0.154,-0.434C0.154,-0.517 0.203,-0.581 0.266,-0.581Z" style="fill:white;fill-rule:nonzero;"/>
                </g>
                <g transform="matrix(-165.478,-19.8684,19.8684,-165.478,6162.16,9664.42)">
                    <path d="M0.148,-0.344C0.106,-0.292 0.091,-0.255 0.091,-0.197C0.091,-0.082 0.164,-0.001 0.267,-0.001C0.37,-0.001 0.443,-0.082 0.443,-0.197C0.443,-0.254 0.424,-0.304 0.386,-0.344L0.384,-0.346L0.386,-0.347C0.416,-0.384 0.431,-0.426 0.431,-0.477C0.431,-0.587 0.361,-0.668 0.266,-0.668C0.172,-0.668 0.102,-0.587 0.102,-0.479C0.102,-0.428 0.118,-0.384 0.149,-0.345L0.148,-0.344ZM0.267,-0.58C0.298,-0.58 0.312,-0.574 0.327,-0.553C0.34,-0.534 0.348,-0.507 0.348,-0.479C0.348,-0.448 0.339,-0.42 0.323,-0.401C0.309,-0.385 0.294,-0.379 0.266,-0.379C0.241,-0.379 0.225,-0.385 0.213,-0.399C0.195,-0.419 0.185,-0.449 0.185,-0.48C0.185,-0.511 0.199,-0.548 0.216,-0.565C0.228,-0.578 0.237,-0.58 0.267,-0.58ZM0.266,-0.304C0.301,-0.304 0.315,-0.298 0.332,-0.279C0.35,-0.259 0.36,-0.228 0.36,-0.196C0.36,-0.166 0.352,-0.138 0.336,-0.118C0.319,-0.093 0.305,-0.088 0.263,-0.088C0.232,-0.088 0.218,-0.093 0.202,-0.112C0.185,-0.132 0.174,-0.165 0.174,-0.198C0.174,-0.224 0.182,-0.251 0.194,-0.27C0.212,-0.294 0.232,-0.304 0.266,-0.304Z" style="fill:white;fill-rule:nonzero;"/>
                </g>
                <g transform="matrix(-145.98,-80.4206,80.4206,-145.98,5943.64,9611.9)">
                    <path d="M0.331,-0.582L0.198,-0.075C0.193,-0.056 0.191,-0.044 0.191,-0.039C0.191,-0.017 0.209,-0 0.232,-0C0.257,-0 0.266,-0.01 0.275,-0.045L0.42,-0.599C0.423,-0.612 0.424,-0.615 0.424,-0.622C0.424,-0.65 0.405,-0.666 0.37,-0.666L0.165,-0.666C0.127,-0.666 0.11,-0.653 0.11,-0.623C0.11,-0.609 0.117,-0.594 0.128,-0.587C0.135,-0.583 0.14,-0.582 0.158,-0.582L0.331,-0.582Z" style="fill:white;fill-rule:nonzero;"/>
                </g>
                <g transform="matrix(-105.76,-128.812,128.812,-105.76,5760.51,9481.42)">
                    <path d="M0.219,-0.46C0.231,-0.477 0.243,-0.493 0.248,-0.497C0.261,-0.51 0.275,-0.522 0.288,-0.534L0.293,-0.538L0.346,-0.58C0.357,-0.589 0.364,-0.595 0.365,-0.596C0.371,-0.603 0.374,-0.611 0.374,-0.621C0.374,-0.637 0.366,-0.653 0.356,-0.659C0.351,-0.662 0.332,-0.666 0.327,-0.665C0.324,-0.665 0.313,-0.66 0.311,-0.658L0.244,-0.605C0.136,-0.519 0.072,-0.387 0.072,-0.247C0.072,-0.103 0.153,0.001 0.266,0.001C0.374,0.001 0.46,-0.103 0.46,-0.234C0.46,-0.365 0.373,-0.467 0.263,-0.467C0.249,-0.467 0.236,-0.465 0.225,-0.462L0.219,-0.46ZM0.267,-0.382C0.329,-0.382 0.378,-0.316 0.378,-0.233C0.378,-0.151 0.327,-0.082 0.267,-0.082C0.202,-0.082 0.154,-0.147 0.154,-0.234C0.154,-0.318 0.203,-0.382 0.267,-0.382Z" style="fill:white;fill-rule:nonzero;"/>
                </g>
                <g transform="matrix(-50.0333,-158.979,158.979,-50.0333,5638.86,9292.35)">
                    <path d="M0.194,-0.571L0.332,-0.571C0.371,-0.571 0.385,-0.582 0.385,-0.611C0.385,-0.641 0.369,-0.654 0.334,-0.654L0.161,-0.654C0.121,-0.654 0.112,-0.645 0.112,-0.604L0.112,-0.385C0.112,-0.358 0.114,-0.351 0.122,-0.342C0.13,-0.333 0.143,-0.328 0.156,-0.328C0.17,-0.328 0.174,-0.33 0.183,-0.337C0.205,-0.358 0.224,-0.367 0.246,-0.367C0.306,-0.367 0.353,-0.305 0.353,-0.224C0.353,-0.146 0.306,-0.084 0.247,-0.084C0.218,-0.084 0.192,-0.098 0.175,-0.123C0.159,-0.146 0.157,-0.148 0.137,-0.148C0.113,-0.148 0.096,-0.131 0.096,-0.108C0.096,-0.093 0.101,-0.084 0.119,-0.063C0.16,-0.019 0.196,-0.001 0.246,-0.001C0.352,-0.001 0.436,-0.1 0.436,-0.225C0.436,-0.35 0.352,-0.45 0.248,-0.45C0.231,-0.45 0.216,-0.447 0.202,-0.442L0.194,-0.44L0.194,-0.571Z" style="fill:white;fill-rule:nonzero;"/>
                </g>
                <g transform="matrix(12.6618,-166.185,166.185,12.6618,5596.79,9071.76)">
                    <path d="M0.155,-0.204L0.266,-0.592L0.267,-0.597C0.268,-0.598 0.269,-0.602 0.271,-0.609C0.273,-0.615 0.274,-0.621 0.274,-0.624C0.274,-0.647 0.254,-0.665 0.23,-0.665C0.211,-0.665 0.195,-0.652 0.193,-0.633C0.192,-0.631 0.192,-0.63 0.192,-0.63L0.069,-0.199L0.067,-0.191C0.061,-0.17 0.06,-0.167 0.06,-0.16C0.06,-0.143 0.07,-0.128 0.084,-0.124C0.091,-0.122 0.097,-0.121 0.117,-0.121L0.297,-0.121L0.297,-0.058C0.297,-0.03 0.299,-0.023 0.306,-0.014C0.314,-0.004 0.327,0.001 0.34,0.001C0.369,0.001 0.379,-0.014 0.379,-0.059L0.379,-0.121L0.42,-0.121C0.458,-0.121 0.474,-0.133 0.474,-0.161C0.474,-0.177 0.465,-0.194 0.453,-0.199C0.445,-0.203 0.439,-0.204 0.423,-0.204L0.379,-0.204L0.379,-0.357C0.382,-0.384 0.365,-0.402 0.338,-0.402C0.31,-0.402 0.297,-0.387 0.297,-0.352L0.297,-0.204L0.155,-0.204Z" style="fill:white;fill-rule:nonzero;"/>
                </g>
                <g transform="matrix(73.9791,-149.348,149.348,73.9791,5639.71,8851.11)">
                    <path d="M0.304,-0.463L0.392,-0.573C0.415,-0.602 0.416,-0.604 0.416,-0.622C0.416,-0.636 0.407,-0.653 0.396,-0.659C0.388,-0.663 0.377,-0.665 0.356,-0.665L0.164,-0.665C0.128,-0.665 0.112,-0.652 0.112,-0.623C0.112,-0.593 0.127,-0.582 0.168,-0.582L0.294,-0.582L0.195,-0.458C0.193,-0.455 0.19,-0.453 0.189,-0.45C0.187,-0.449 0.186,-0.447 0.185,-0.446C0.174,-0.433 0.171,-0.426 0.171,-0.415C0.171,-0.392 0.188,-0.384 0.231,-0.384C0.281,-0.385 0.303,-0.38 0.323,-0.362C0.356,-0.334 0.376,-0.284 0.376,-0.232C0.376,-0.149 0.327,-0.083 0.264,-0.083C0.215,-0.083 0.177,-0.12 0.157,-0.188C0.149,-0.215 0.141,-0.222 0.119,-0.222C0.095,-0.222 0.076,-0.205 0.076,-0.182C0.076,-0.172 0.079,-0.159 0.085,-0.142C0.119,-0.052 0.185,0.001 0.263,0.001C0.372,0.001 0.458,-0.102 0.458,-0.233C0.458,-0.286 0.444,-0.337 0.417,-0.378C0.393,-0.416 0.361,-0.44 0.304,-0.463Z" style="fill:white;fill-rule:nonzero;"/>
                </g>
                <g transform="matrix(124.162,-111.182,111.182,124.162,5762.21,8662.4)">
                    <path d="M0.194,-0.083L0.195,-0.086C0.216,-0.181 0.265,-0.261 0.335,-0.31C0.359,-0.327 0.363,-0.33 0.373,-0.34C0.408,-0.374 0.428,-0.425 0.428,-0.481C0.428,-0.586 0.358,-0.67 0.27,-0.67C0.184,-0.67 0.112,-0.586 0.112,-0.485C0.112,-0.459 0.114,-0.449 0.122,-0.44C0.13,-0.432 0.141,-0.427 0.154,-0.427C0.18,-0.427 0.194,-0.443 0.194,-0.472L0.194,-0.478L0.193,-0.485C0.191,-0.5 0.2,-0.532 0.21,-0.549C0.225,-0.573 0.247,-0.587 0.27,-0.587C0.311,-0.587 0.345,-0.54 0.345,-0.482C0.345,-0.438 0.331,-0.408 0.3,-0.387C0.218,-0.329 0.171,-0.269 0.136,-0.176C0.119,-0.13 0.105,-0.069 0.105,-0.039C0.105,-0.009 0.118,-0 0.159,-0L0.381,-0C0.399,-0.001 0.401,-0.001 0.409,-0.006C0.42,-0.014 0.427,-0.028 0.427,-0.043C0.427,-0.07 0.412,-0.083 0.381,-0.083L0.194,-0.083Z" style="fill:white;fill-rule:nonzero;"/>
                </g>
                <g transform="matrix(156.623,-56.9834,56.9834,156.623,5945.56,8532.83)">
                    <path d="M0.305,-0.617C0.305,-0.649 0.293,-0.664 0.267,-0.664C0.24,-0.664 0.228,-0.649 0.228,-0.614L0.228,-0.047C0.228,-0.026 0.229,-0.021 0.234,-0.015C0.243,-0.004 0.254,0.001 0.267,0.001C0.293,0.001 0.305,-0.014 0.305,-0.047L0.305,-0.617Z" style="fill:white;fill-rule:nonzero;"/>
                </g>
                <g transform="matrix(166.577,5.48141,-5.48141,166.577,6164.34,8481.11)">
                    <path d="M0.267,-0.669C0.212,-0.669 0.152,-0.63 0.122,-0.573C0.09,-0.516 0.073,-0.432 0.073,-0.338C0.073,-0.216 0.095,-0.128 0.14,-0.067C0.168,-0.029 0.223,-0 0.266,-0C0.306,-0 0.356,-0.025 0.385,-0.06C0.436,-0.12 0.46,-0.208 0.46,-0.331C0.46,-0.457 0.433,-0.557 0.385,-0.611C0.352,-0.646 0.306,-0.669 0.267,-0.669ZM0.269,-0.584C0.334,-0.584 0.377,-0.481 0.377,-0.326C0.377,-0.244 0.363,-0.174 0.338,-0.134C0.32,-0.105 0.29,-0.084 0.266,-0.084C0.244,-0.084 0.215,-0.103 0.2,-0.128C0.17,-0.177 0.156,-0.244 0.156,-0.34C0.156,-0.487 0.201,-0.584 0.269,-0.584Z" style="fill:white;fill-rule:nonzero;"/>
                </g>
            </g>
        </g>
    </g>
</svg>
